<?xml version="1.0" encoding="UTF-8"?>
<!DOCTYPE svg PUBLIC "-//W3C//DTD SVG 1.1//EN" "http://www.w3.org/Graphics/SVG/1.1/DTD/svg11.dtd">
<svg xmlns="http://www.w3.org/2000/svg" version="1.1" width="512px" height="512px" style="shape-rendering:geometricPrecision; text-rendering:geometricPrecision; image-rendering:optimizeQuality; fill-rule:evenodd; clip-rule:evenodd" xmlns:xlink="http://www.w3.org/1999/xlink">
<g><path style="opacity:0.976" fill="#000000" d="M 401.5,75.5 C 421.51,76.0111 432.844,86.1778 435.5,106C 435.074,112.279 433.24,118.112 430,123.5C 403.375,150.959 376.542,178.292 349.5,205.5C 363.791,266.132 377.625,326.799 391,387.5C 381.667,396.833 372.333,406.167 363,415.5C 336.965,366.959 311.132,318.292 285.5,269.5C 259.833,294.5 234.5,319.833 209.5,345.5C 220.833,365.5 232.167,385.5 243.5,405.5C 233.848,415.653 224.014,425.653 214,435.5C 196,408.167 178,380.833 160,353.5C 131.919,334.543 103.753,315.709 75.5,297C 85.3997,287.1 95.2331,277.267 105,267.5C 125.232,278.7 145.398,290.033 165.5,301.5C 191.167,276.5 216.5,251.167 241.5,225.5C 192.708,199.868 144.041,174.035 95.5,148C 105.042,138.124 114.875,128.624 125,119.5C 185.193,133.423 245.359,147.423 305.5,161.5C 332.681,134.486 360.014,107.652 387.5,81C 392.017,78.4455 396.684,76.6121 401.5,75.5 Z"/></g>
</svg>
