<?xml version="1.0" encoding="UTF-8"?>
<!DOCTYPE svg PUBLIC "-//W3C//DTD SVG 1.1//EN" "http://www.w3.org/Graphics/SVG/1.1/DTD/svg11.dtd">
<svg xmlns="http://www.w3.org/2000/svg" version="1.1" width="512px" height="512px" style="shape-rendering:geometricPrecision; text-rendering:geometricPrecision; image-rendering:optimizeQuality; fill-rule:evenodd; clip-rule:evenodd" xmlns:xlink="http://www.w3.org/1999/xlink">
<g><path style="opacity:0.966" fill="#ffffff" d="M 251.5,41.5 C 264.91,40.7662 273.41,46.7662 277,59.5C 277.333,170.833 277.667,282.167 278,393.5C 293.833,377.667 309.667,361.833 325.5,346C 337.703,337.745 348.869,338.912 359,349.5C 364.113,359.252 363.447,368.585 357,377.5C 328.5,406 300,434.5 271.5,463C 260.833,471.667 250.167,471.667 239.5,463C 211,434.5 182.5,406 154,377.5C 145.745,365.297 146.912,354.131 157.5,344C 167.252,338.887 176.585,339.553 185.5,346C 201.333,361.833 217.167,377.667 233,393.5C 233.333,282.167 233.667,170.833 234,59.5C 236.014,49.654 241.847,43.654 251.5,41.5 Z"/></g>
</svg>
