<?xml version="1.0" encoding="UTF-8"?>
<!DOCTYPE svg PUBLIC "-//W3C//DTD SVG 1.1//EN" "http://www.w3.org/Graphics/SVG/1.1/DTD/svg11.dtd">
<svg xmlns="http://www.w3.org/2000/svg" version="1.1" width="512px" height="512px" style="shape-rendering:geometricPrecision; text-rendering:geometricPrecision; image-rendering:optimizeQuality; fill-rule:evenodd; clip-rule:evenodd" xmlns:xlink="http://www.w3.org/1999/xlink">
<g><path style="opacity:0.963" fill="#ffffff" d="M 511.5,167.5 C 511.5,179.167 511.5,190.833 511.5,202.5C 507.273,233.954 495.106,261.954 475,286.5C 413.167,348.333 351.333,410.167 289.5,472C 266.335,487.275 243.335,486.942 220.5,471C 159,409.5 97.5,348 36,286.5C 15.894,261.954 3.72735,233.954 -0.5,202.5C -0.5,190.5 -0.5,178.5 -0.5,166.5C 8.50219,107.335 40.1689,65.1687 94.5,40C 152.567,18.2984 206.234,26.1318 255.5,63.5C 304.766,26.1318 358.433,18.2984 416.5,40C 471.124,65.423 502.791,107.923 511.5,167.5 Z M 153.5,58.5 C 189.481,59.0005 220.148,71.8339 245.5,97C 252.167,101.667 258.833,101.667 265.5,97C 300.901,62.7624 342.568,51.7624 390.5,64C 433.667,77.8333 462.167,106.333 476,149.5C 487.197,193.362 478.531,232.695 450,267.5C 390.167,327.333 330.333,387.167 270.5,447C 260.5,454.333 250.5,454.333 240.5,447C 180.667,387.167 120.833,327.333 61,267.5C 28.9112,227.629 21.9112,183.629 40,135.5C 62.844,87.8221 100.677,62.1554 153.5,58.5 Z"/></g>
</svg>
